# xmcd
#
# Track frame offsets: 
#        150
#        20420
#        32317
#        45925
#        62052
#        81232
#        98782
#        120435
#        133527
#        149710
#        165715
#        182125
#
# Disc length: 2622 seconds
#
# Revision: 0
# Processed by: cddbd v1.5.2PL0 Copyright (c) Steve Scherf et al.
# Submitted via: ExactAudioCopy v0.99pb3
#
DISCID=980a3c0c
DTITLE=Water Street Blues Band - Home Is Where The Heart Is
DYEAR=1996
DGENRE=Blues
TTITLE0=What I'd Seen
TTITLE1=Can't Find Me No World
TTITLE2=Blame It On Jane
TTITLE3=Home Is Where The Heart Is
TTITLE4=Another New Orleans Thing
TTITLE5=Workin' Everyday
TTITLE6=Figure Out The World
TTITLE7=Big Chief Terrifier
TTITLE8=Fly On
TTITLE9=Shoo Fly
TTITLE10=If I Ever Go
TTITLE11=Coming Into My Own
EXTD=
EXTT0=
EXTT1=
EXTT2=
EXTT3=
EXTT4=
EXTT5=
EXTT6=
EXTT7=
EXTT8=
EXTT9=
EXTT10=
EXTT11=
PLAYORDER=
